<svg width="7" height="29" viewBox="0 0 7 29" fill="none" xmlns="http://www.w3.org/2000/svg">
<path d="M6.59375 25.4375C6.59375 26.3077 6.2678 27.1423 5.68761 27.7577C5.10742 28.373 4.32051 28.7188 3.5 28.7188C2.67949 28.7188 1.89258 28.373 1.31239 27.7577C0.732197 27.1423 0.40625 26.3077 0.40625 25.4375C0.40625 24.5673 0.732197 23.7327 1.31239 23.1173C1.89258 22.502 2.67949 22.1562 3.5 22.1562C4.32051 22.1562 5.10742 22.502 5.68761 23.1173C6.2678 23.7327 6.59375 24.5673 6.59375 25.4375ZM6.59375 14.5C6.59375 15.3702 6.2678 16.2048 5.68761 16.8202C5.10742 17.4355 4.32051 17.7812 3.5 17.7812C2.67949 17.7812 1.89258 17.4355 1.31239 16.8202C0.732197 16.2048 0.40625 15.3702 0.40625 14.5C0.40625 13.6298 0.732197 12.7952 1.31239 12.1798C1.89258 11.5645 2.67949 11.2188 3.5 11.2188C4.32051 11.2188 5.10742 11.5645 5.68761 12.1798C6.2678 12.7952 6.59375 13.6298 6.59375 14.5ZM6.59375 3.5625C6.59375 4.43274 6.2678 5.26734 5.68761 5.88269C5.10742 6.49805 4.32051 6.84375 3.5 6.84375C2.67949 6.84375 1.89258 6.49805 1.31239 5.88269C0.732197 5.26734 0.40625 4.43274 0.40625 3.5625C0.40625 2.69226 0.732197 1.85766 1.31239 1.24231C1.89258 0.626952 2.67949 0.28125 3.5 0.28125C4.32051 0.28125 5.10742 0.626952 5.68761 1.24231C6.2678 1.85766 6.59375 2.69226 6.59375 3.5625Z" fill="#A8A8A8"/>
</svg>
